<svg xmlns="http://www.w3.org/2000/svg" xmlns:xlink="http://www.w3.org/1999/xlink" width="500" zoomAndPan="magnify" viewBox="0 0 375 374.999991" height="500" preserveAspectRatio="xMidYMid meet" version="1.0"><path fill="#f3ba35" d="M 374.925781 291.117188 C 374.925781 290.59375 374.757812 290.136719 374.523438 289.710938 L 374.523438 2.949219 C 374.523438 1.484375 373.351562 0.328125 371.90625 0.328125 L 90.320312 0.328125 C 89.898438 0.0898438 89.425781 -0.0742188 88.90625 -0.0742188 C 88.378906 -0.0742188 87.917969 0.0898438 87.480469 0.328125 L 3.082031 0.328125 C 1.632812 0.328125 0.464844 1.480469 0.464844 2.949219 L 0.464844 289.710938 C 0.230469 290.136719 0.0703125 290.59375 0.0703125 291.117188 C 0.0703125 291.640625 0.230469 292.113281 0.464844 292.542969 L 0.464844 371.769531 C 0.464844 373.222656 1.632812 374.394531 3.082031 374.394531 L 48.78125 374.394531 C 49.21875 374.628906 49.679688 374.796875 50.195312 374.796875 L 56.933594 374.796875 C 57.449219 374.796875 57.925781 374.628906 58.359375 374.394531 L 316.640625 374.394531 C 317.078125 374.628906 317.554688 374.796875 318.066406 374.796875 L 324.796875 374.796875 C 325.316406 374.796875 325.785156 374.628906 326.222656 374.394531 L 371.910156 374.394531 C 373.359375 374.394531 374.527344 373.222656 374.527344 371.769531 L 374.527344 292.542969 C 374.757812 292.113281 374.925781 291.640625 374.925781 291.117188 Z M 85.886719 5.550781 L 85.886719 108.261719 L 81.496094 108.261719 C 80.425781 108.261719 79.570312 109.117188 79.570312 110.1875 L 79.570312 114.507812 C 77.304688 116.324219 71.5 122.160156 71.5 134.601562 C 71.5 135.679688 72.363281 136.535156 73.425781 136.535156 L 104.738281 136.535156 C 105.808594 136.535156 106.667969 135.675781 106.667969 134.601562 C 106.667969 122.160156 100.851562 116.328125 98.589844 114.507812 L 98.589844 110.1875 C 98.589844 109.117188 97.726562 108.261719 96.664062 108.261719 L 91.914062 108.261719 L 91.914062 5.550781 L 369.285156 5.550781 L 369.285156 288.105469 L 339.34375 288.105469 C 339.324219 288.066406 339.324219 288.035156 339.300781 287.988281 L 293.636719 227.917969 L 293.636719 168.574219 C 293.636719 166.914062 292.277344 165.566406 290.613281 165.566406 L 282.046875 165.566406 L 198.714844 137.738281 C 198.410156 137.632812 198.085938 137.589844 197.761719 137.589844 L 177.21875 137.589844 C 176.894531 137.589844 176.570312 137.632812 176.261719 137.738281 L 92.929688 165.566406 L 84.371094 165.566406 C 82.699219 165.566406 81.351562 166.914062 81.351562 168.574219 L 81.351562 227.917969 L 35.683594 287.988281 C 35.660156 288.035156 35.660156 288.066406 35.636719 288.105469 L 5.695312 288.105469 L 5.695312 5.550781 Z M 96.0625 117.40625 C 97.476562 118.484375 102.207031 122.828125 102.761719 132.667969 L 75.40625 132.667969 C 75.957031 122.820312 80.707031 118.472656 82.101562 117.40625 Z M 94.734375 113.542969 L 83.421875 113.542969 L 83.421875 112.117188 L 86.628906 112.117188 C 87.183594 112.761719 87.96875 113.210938 88.902344 113.210938 C 89.828125 113.210938 90.625 112.761719 91.171875 112.117188 L 94.730469 112.117188 L 94.730469 113.542969 Z M 52.765625 368.746094 L 47.917969 339.179688 L 62.433594 339.179688 L 54.605469 368.746094 Z M 68.683594 339.179688 L 306.324219 339.179688 L 314.257812 369.152344 L 60.742188 369.152344 Z M 320.390625 368.746094 L 312.554688 339.179688 L 327.074219 339.179688 L 322.230469 368.746094 Z M 41.109375 333.148438 L 41.109375 292.828125 L 333.882812 292.828125 L 333.882812 333.148438 Z M 44.1875 286.808594 L 76.191406 244.691406 L 298.804688 244.691406 L 330.8125 286.808594 Z M 85.875 231.957031 L 289.121094 231.957031 L 294.210938 238.65625 L 80.785156 238.65625 Z M 90.410156 225.917969 L 87.386719 225.917969 L 87.386719 171.605469 L 90.410156 171.605469 Z M 287.601562 171.605469 L 287.601562 225.917969 L 284.582031 225.917969 L 284.582031 171.605469 Z M 278.550781 225.917969 L 275.980469 225.917969 C 276.3125 224.972656 276.523438 223.972656 276.523438 222.917969 L 276.523438 207.828125 C 276.523438 202.832031 272.472656 198.773438 267.484375 198.773438 L 230.761719 198.773438 C 225.761719 198.773438 221.710938 202.832031 221.710938 207.828125 L 221.710938 222.917969 C 221.710938 223.972656 221.925781 224.972656 222.261719 225.917969 L 152.238281 225.917969 C 152.574219 224.972656 152.789062 223.972656 152.789062 222.917969 L 152.789062 207.828125 C 152.789062 202.832031 148.71875 198.773438 143.734375 198.773438 L 107.011719 198.773438 C 102.015625 198.773438 97.957031 202.832031 97.957031 207.828125 L 97.957031 222.917969 C 97.957031 223.972656 98.171875 224.972656 98.507812 225.917969 L 96.445312 225.917969 L 96.445312 170.761719 L 177.722656 143.605469 L 197.273438 143.605469 L 278.546875 170.761719 L 278.546875 225.917969 Z M 227.742188 222.917969 L 227.742188 207.828125 C 227.742188 206.152344 229.097656 204.792969 230.761719 204.792969 L 267.484375 204.792969 C 269.136719 204.792969 270.496094 206.152344 270.496094 207.828125 L 270.496094 222.917969 C 270.496094 224.570312 269.136719 225.917969 267.484375 225.917969 L 230.761719 225.917969 C 229.097656 225.917969 227.742188 224.570312 227.742188 222.917969 Z M 103.988281 222.917969 L 103.988281 207.828125 C 103.988281 206.152344 105.347656 204.792969 107.011719 204.792969 L 143.734375 204.792969 C 145.398438 204.792969 146.746094 206.152344 146.746094 207.828125 L 146.746094 222.917969 C 146.746094 224.570312 145.398438 225.917969 143.734375 225.917969 L 107.011719 225.917969 C 105.347656 225.917969 103.988281 224.570312 103.988281 222.917969 Z M 5.695312 294.148438 L 35.074219 294.148438 L 35.074219 336.15625 C 35.074219 337.820312 36.421875 339.179688 38.085938 339.179688 L 41.792969 339.179688 L 46.714844 369.152344 L 5.695312 369.152344 Z M 328.292969 369.152344 L 333.207031 339.179688 L 336.90625 339.179688 C 338.578125 339.179688 339.925781 337.820312 339.925781 336.15625 L 339.925781 294.148438 L 369.292969 294.148438 L 369.292969 369.152344 Z M 328.292969 369.152344 " fill-opacity="1" fill-rule="nonzero"/><path fill="#f3ba35" d="M 28.675781 168.4375 L 44.199219 168.4375 C 44.847656 168.4375 45.390625 167.910156 45.390625 167.246094 L 45.390625 138.332031 C 45.390625 137.679688 44.847656 137.140625 44.199219 137.140625 L 28.675781 137.140625 C 28.027344 137.140625 27.472656 137.675781 27.472656 138.332031 L 27.472656 167.246094 C 27.472656 167.914062 28.027344 168.4375 28.675781 168.4375 Z M 29.855469 146.957031 L 43.007812 146.957031 L 43.007812 158.015625 L 29.855469 158.015625 Z M 43.007812 160.398438 L 43.007812 161.542969 L 29.855469 161.542969 L 29.855469 160.398438 Z M 43.007812 144.574219 L 29.855469 144.574219 L 29.855469 143.332031 L 43.007812 143.332031 Z M 29.855469 166.058594 L 29.855469 163.9375 L 43.007812 163.9375 L 43.007812 166.058594 Z M 43.007812 139.53125 L 43.007812 140.949219 L 29.855469 140.949219 L 29.855469 139.53125 Z M 43.007812 139.53125 " fill-opacity="1" fill-rule="nonzero"/><path fill="#f3ba35" d="M 333.632812 168.4375 L 349.15625 168.4375 C 349.816406 168.4375 350.347656 167.910156 350.347656 167.246094 L 350.347656 138.332031 C 350.347656 137.679688 349.816406 137.140625 349.15625 137.140625 L 333.632812 137.140625 C 332.984375 137.140625 332.429688 137.675781 332.429688 138.332031 L 332.429688 167.246094 C 332.429688 167.914062 332.980469 168.4375 333.632812 168.4375 Z M 334.824219 146.957031 L 347.953125 146.957031 L 347.953125 158.015625 L 334.824219 158.015625 Z M 347.953125 160.398438 L 347.953125 161.542969 L 334.824219 161.542969 L 334.824219 160.398438 Z M 347.953125 144.574219 L 334.824219 144.574219 L 334.824219 143.332031 L 347.953125 143.332031 Z M 334.824219 166.058594 L 334.824219 163.9375 L 347.953125 163.9375 L 347.953125 166.058594 Z M 347.953125 139.53125 L 347.953125 140.949219 L 334.824219 140.949219 L 334.824219 139.53125 Z M 347.953125 139.53125 " fill-opacity="1" fill-rule="nonzero"/><path fill="#f3ba35" d="M 205.175781 128.03125 L 281.558594 128.03125 C 283.21875 128.03125 284.578125 126.683594 284.578125 125.011719 L 284.578125 48.628906 C 284.578125 46.96875 283.21875 45.609375 281.558594 45.609375 L 205.175781 45.609375 C 203.503906 45.609375 202.15625 46.96875 202.15625 48.628906 L 202.15625 125.011719 C 202.15625 126.683594 203.507812 128.03125 205.175781 128.03125 Z M 208.183594 51.640625 L 278.546875 51.640625 L 278.546875 121.992188 L 208.183594 121.992188 Z M 208.183594 51.640625 " fill-opacity="1" fill-rule="nonzero"/></svg>